<svg width="224" height="224" viewBox="0 0 224 224" fill="none" xmlns="http://www.w3.org/2000/svg">
<path d="M216.706 122.12L216.863 120.183L209.723 119.603L209.795 118.718L216.935 119.297L217.092 117.36L217.93 117.428L217.543 122.188L216.706 122.12Z" fill="#E60000"/>
<path d="M217.161 125.517L213.946 125.031L213.332 129.089L216.547 129.575L216.414 130.453L208.5 129.256L208.633 128.378L212.501 128.963L213.115 124.905L209.247 124.32L209.38 123.442L217.294 124.639L217.161 125.517Z" fill="#E60000"/>
<path d="M215.115 136.559L214.295 136.379L214.992 133.191L212.67 132.683L211.994 135.778L211.173 135.599L211.85 132.504L208.814 131.84L208.117 135.029L207.296 134.85L208.183 130.793L216.002 132.503L215.115 136.559Z" fill="#E60000"/>
<path d="M204.497 144.29L206.932 144.096L207.984 140.855L206.135 139.245L206.438 138.309L213.279 144.402L204.193 145.226L204.497 144.29ZM208.676 141.445L207.838 144.024L211.301 143.735L208.676 141.445Z" fill="#E60000"/>
<path d="M211.091 149.486L210.764 150.312L204.105 147.67L203.29 149.722L202.51 149.412L203.651 146.535L211.091 149.486Z" fill="#E60000"/>
<path d="M209.099 154.385L208.489 155.69C208.15 156.415 207.739 156.898 207.255 157.14C206.718 157.418 206.117 157.402 205.45 157.09C204.827 156.799 204.464 156.338 204.361 155.707C204.029 156.117 203.632 156.351 203.172 156.409C202.716 156.478 202.288 156.42 201.89 156.234C201.564 156.081 201.297 155.868 201.089 155.594C200.878 155.328 200.738 155.05 200.67 154.762C200.541 154.207 200.653 153.553 201.005 152.799L201.849 150.995L209.099 154.385ZM207.962 154.834L205.538 153.7L205.253 154.309C205.203 154.418 205.157 154.525 205.117 154.63C205.084 154.738 205.057 154.871 205.036 155.029C205.019 155.198 205.027 155.351 205.059 155.49C205.088 155.636 205.165 155.782 205.291 155.93C205.416 156.077 205.584 156.199 205.794 156.297C206.019 156.403 206.231 156.449 206.431 156.436C206.639 156.427 206.808 156.387 206.938 156.316C207.069 156.244 207.191 156.143 207.306 156.011C207.421 155.879 207.5 155.775 207.545 155.699C207.589 155.622 207.63 155.544 207.667 155.465L207.962 154.834ZM204.821 153.365L202.234 152.155L201.801 153.079C201.527 153.666 201.43 154.138 201.511 154.493C201.594 154.921 201.853 155.236 202.288 155.439C202.773 155.666 203.225 155.626 203.643 155.318C203.909 155.125 204.173 154.749 204.434 154.191L204.821 153.365Z" fill="#E60000"/>
<path d="M205.978 160.813L205.563 161.598L198.485 157.862L198.899 157.077L205.978 160.813Z" fill="#E60000"/>
<path d="M197.215 160.25L197.678 159.493L204.795 163.84L195.961 165.756L201.256 168.99L200.793 169.748L193.655 165.388L202.489 163.472L197.215 160.25Z" fill="#E60000"/>
<path d="M194.143 177.449L195.327 175.906L189.643 171.545L190.184 170.841L195.867 175.202L197.051 173.659L197.717 174.171L194.81 177.96L194.143 177.449Z" fill="#E60000"/>
<path d="M190.625 182.892L189.989 182.342L192.123 179.873L190.326 178.319L188.254 180.716L187.619 180.167L189.69 177.77L187.339 175.738L185.205 178.207L184.569 177.658L187.284 174.517L193.34 179.75L190.625 182.892Z" fill="#E60000"/>
<path d="M179.726 182.641L181.987 183.567L184.388 181.148L183.463 178.877L184.156 178.179L187.514 186.703L179.033 183.34L179.726 182.641ZM184.739 181.987L182.828 183.911L186.049 185.215L184.739 181.987Z" fill="#E60000"/>
<path d="M177.656 184.622L178.354 184.036L182.765 191.364L176.068 188.163L178.02 195.361L171.626 189.682L172.324 189.096L176.483 192.875L174.774 186.602L180.628 189.396L177.656 184.622Z" fill="#E60000"/>
<path d="M167.757 200.69L168.092 199.91C168.335 200.047 168.575 200.128 168.812 200.154C169.114 200.176 169.415 200.089 169.716 199.891C170.05 199.671 170.257 199.396 170.337 199.066C170.422 198.743 170.363 198.427 170.161 198.12C170.011 197.893 169.8 197.754 169.528 197.703C169.306 197.657 168.98 197.67 168.549 197.743L167.723 197.884C167.112 197.989 166.629 198.004 166.274 197.931C165.743 197.821 165.316 197.522 164.996 197.034C164.596 196.425 164.471 195.799 164.622 195.154C164.773 194.509 165.152 193.987 165.761 193.587C166.363 193.192 166.966 193.054 167.571 193.173C168.065 193.27 168.532 193.528 168.97 193.948L168.38 194.623C168.114 194.32 167.793 194.123 167.419 194.034C167.009 193.95 166.607 194.037 166.212 194.296C165.784 194.577 165.537 194.922 165.47 195.329C165.407 195.744 165.496 196.135 165.738 196.503C165.949 196.824 166.231 197.012 166.583 197.068C166.789 197.104 167.158 197.082 167.688 197.002L168.475 196.887C169.006 196.806 169.424 196.795 169.73 196.852C170.231 196.944 170.624 197.208 170.909 197.642C171.248 198.157 171.346 198.686 171.205 199.228C171.061 199.782 170.716 200.239 170.167 200.599C169.753 200.872 169.329 201.007 168.897 201.004C168.504 201.003 168.124 200.899 167.757 200.69Z" fill="#E60000"/>
<path d="M162.057 204.363L163.745 203.399L160.193 197.178L160.964 196.737L164.516 202.958L166.204 201.994L166.621 202.724L162.473 205.092L162.057 204.363Z" fill="#E60000"/>
<path d="M159.639 206.576L157.494 202.162C157.361 201.888 157.255 201.678 157.174 201.53C157.086 201.386 156.945 201.223 156.75 201.042C156.552 200.872 156.326 200.755 156.073 200.691C155.616 200.575 155.154 200.63 154.686 200.858C154.218 201.085 153.889 201.414 153.698 201.845C153.592 202.083 153.548 202.331 153.566 202.589C153.581 202.858 153.622 203.069 153.688 203.224C153.747 203.382 153.843 203.598 153.976 203.871L156.12 208.286L155.322 208.674L153.072 204.043C152.715 203.309 152.587 202.66 152.686 202.096C152.762 201.686 152.942 201.305 153.225 200.954C153.501 200.606 153.866 200.322 154.319 200.102C154.772 199.882 155.224 199.769 155.675 199.763C156.119 199.761 156.526 199.857 156.896 200.051C157.401 200.321 157.831 200.824 158.188 201.558L160.438 206.188L159.639 206.576Z" fill="#E60000"/>
<path d="M150.011 202.255L152.934 209.706L151.415 210.302C150.268 210.752 149.238 210.821 148.325 210.509C147.199 210.134 146.4 209.348 145.93 208.149C145.474 206.987 145.535 205.863 146.114 204.776C146.352 204.331 146.649 203.96 147.006 203.666C147.363 203.371 147.862 203.098 148.502 202.847L150.011 202.255ZM151.801 209.248L149.491 203.361L148.765 203.646C147.878 203.994 147.255 204.496 146.894 205.154C146.446 205.983 146.407 206.87 146.779 207.816C147.129 208.709 147.697 209.312 148.48 209.623C149.264 209.934 150.129 209.904 151.075 209.533L151.801 209.248Z" fill="#E60000"/>
<path d="M145.235 212.572L144.392 212.85L141.892 205.246L142.736 204.969L145.235 212.572Z" fill="#E60000"/>
<path d="M133.964 208.565C134.537 207.595 135.388 206.962 136.517 206.665C137.647 206.368 138.703 206.5 139.686 207.061C140.661 207.623 141.298 208.473 141.597 209.611C141.898 210.756 141.757 211.81 141.175 212.774C140.595 213.745 139.744 214.378 138.622 214.673C137.5 214.968 136.448 214.835 135.465 214.275C134.484 213.722 133.844 212.873 133.543 211.728C133.244 210.59 133.384 209.536 133.964 208.565ZM135.936 213.518C136.71 213.976 137.534 214.091 138.409 213.861C139.283 213.631 139.944 213.126 140.393 212.347C140.841 211.567 140.949 210.732 140.715 209.842C140.481 208.953 139.977 208.279 139.203 207.82C138.429 207.362 137.605 207.248 136.731 207.478C135.857 207.707 135.195 208.212 134.747 208.992C134.298 209.771 134.191 210.606 134.425 211.496C134.659 212.386 135.162 213.06 135.936 213.518Z" fill="#E60000"/>
<path d="M125.147 216.321L127.071 216.037L126.026 208.95L126.904 208.82L127.949 215.908L129.872 215.624L129.995 216.455L125.27 217.152L125.147 216.321Z" fill="#E60000"/>
<path d="M122.085 217.509L121.822 214.268L117.731 214.6L117.994 217.842L117.109 217.913L116.462 209.936L117.347 209.864L117.663 213.763L121.754 213.431L121.437 209.532L122.322 209.46L122.97 217.438L122.085 217.509Z" fill="#E60000"/>
<path d="M110.592 218.028L110.583 217.188L113.847 217.15L113.819 214.774L110.651 214.811L110.642 213.971L113.809 213.934L113.773 210.826L110.51 210.864L110.5 210.024L114.652 209.976L114.744 217.98L110.592 218.028Z" fill="#E60000"/>
<path d="M100.349 209.413L101.091 211.741L104.486 212.029L105.634 209.863L106.614 209.946L102.233 217.992L99.3686 209.33L100.349 209.413ZM104.068 212.837L101.366 212.607L102.434 215.914L104.068 212.837Z" fill="#E60000"/>
<path d="M96.8179 217.007L95.9399 216.874L97.0118 209.79L94.8287 209.46L94.9544 208.63L98.0155 209.093L96.8179 217.007Z" fill="#E60000"/>
<path d="M91.6857 216.183L90.2767 215.886C89.4938 215.721 88.9296 215.431 88.5839 215.015C88.1901 214.556 88.069 213.966 88.2207 213.246C88.3624 212.573 88.7288 212.114 89.3196 211.871C88.845 211.64 88.5267 211.307 88.3648 210.873C88.1935 210.444 88.1531 210.015 88.2438 209.584C88.318 209.232 88.4647 208.923 88.6839 208.659C88.8953 208.393 89.1334 208.194 89.3984 208.061C89.9093 207.809 90.5718 207.769 91.386 207.94L93.3352 208.351L91.6857 216.183ZM90.9899 215.178L91.5414 212.559L90.8838 212.421C90.7664 212.396 90.6521 212.376 90.5408 212.361C90.4279 212.354 90.2922 212.358 90.1335 212.373C89.9654 212.395 89.8175 212.438 89.6898 212.501C89.5542 212.562 89.4292 212.671 89.3146 212.826C89.2 212.982 89.1189 213.173 89.0711 213.4C89.0199 213.643 89.0232 213.86 89.0809 214.052C89.1369 214.252 89.2146 214.408 89.3139 214.518C89.4132 214.629 89.54 214.726 89.6945 214.807C89.8491 214.889 89.9685 214.942 90.053 214.968C90.1375 214.994 90.2227 215.016 90.3089 215.035L90.9899 215.178ZM91.7046 211.784L92.2932 208.99L91.2951 208.78C90.661 208.646 90.1799 208.659 89.852 208.819C89.4548 208.997 89.2067 209.321 89.1078 209.791C88.9973 210.315 89.1396 210.746 89.5347 211.082C89.7836 211.298 90.2094 211.47 90.8122 211.597L91.7046 211.784Z" fill="#E60000"/>
<path d="M84.6924 214.593L83.8336 214.367L85.8684 206.626L86.7273 206.852L84.6924 214.593Z" fill="#E60000"/>
<path d="M83.2473 205.927L84.0898 206.207L81.4556 214.121L77.6007 205.944L75.6412 211.831L74.7986 211.55L77.4404 203.614L81.2953 211.791L83.2473 205.927Z" fill="#E60000"/>
<path d="M65.8312 206.819L67.6013 207.623L70.5633 201.1L71.3718 201.467L68.4098 207.99L70.1799 208.794L69.8326 209.559L65.4839 207.584L65.8312 206.819Z" fill="#E60000"/>
<path d="M59.756 204.619L60.1481 203.877L63.0348 205.4L64.1438 203.299L61.342 201.82L61.7341 201.077L64.5358 202.556L65.9865 199.807L63.0999 198.284L63.492 197.541L67.1639 199.479L63.428 206.557L59.756 204.619Z" fill="#E60000"/>
<path d="M57.5876 193.958L57.1928 196.369L60.0881 198.166L62.0937 196.756L62.9297 197.275L55.3753 202.458L56.7517 193.439L57.5876 193.958ZM59.3493 198.696L57.0453 197.266L56.4971 200.697L59.3493 198.696Z" fill="#E60000"/>
<path d="M55.1961 192.388L55.9237 192.938L49.7676 198.874L51.39 191.632L44.8107 195.144L48.9157 187.642L49.6433 188.191L46.8894 193.089L52.6223 190.022L51.2072 196.352L55.1961 192.388Z" fill="#E60000"/>
<path d="M37.3324 186.35L38.1674 186.502C38.0884 186.769 38.0628 187.022 38.0906 187.259C38.1367 187.557 38.2898 187.831 38.5498 188.08C38.8388 188.357 39.153 188.497 39.4926 188.501C39.8267 188.511 40.1209 188.383 40.3754 188.117C40.5635 187.92 40.6517 187.684 40.64 187.407C40.6351 187.18 40.549 186.865 40.3818 186.462L40.0593 185.688C39.8205 185.116 39.6972 184.649 39.6893 184.287C39.6775 183.744 39.8735 183.262 40.2773 182.84C40.7808 182.314 41.3635 182.052 42.0256 182.055C42.6876 182.057 43.2816 182.31 43.8075 182.814C44.3276 183.312 44.5972 183.869 44.6163 184.485C44.6329 184.988 44.4856 185.501 44.1745 186.023L43.3844 185.598C43.6206 185.271 43.7401 184.915 43.743 184.53C43.7339 184.111 43.5589 183.739 43.2179 183.412C42.8481 183.058 42.4569 182.894 42.0444 182.92C41.6264 182.952 41.2653 183.127 40.961 183.445C40.6955 183.722 40.5751 184.039 40.5998 184.395C40.61 184.604 40.7139 184.958 40.9115 185.457L41.1993 186.198C41.3969 186.697 41.5019 187.102 41.5143 187.413C41.5367 187.922 41.3681 188.364 41.0086 188.74C40.5826 189.185 40.0893 189.399 39.5288 189.383C38.957 189.367 38.4342 189.132 37.9603 188.679C37.602 188.336 37.3758 187.953 37.2817 187.531C37.1942 187.148 37.2111 186.754 37.3324 186.35Z" fill="#E60000"/>
<path d="M32.4944 181.644L33.813 183.072L39.0771 178.213L39.6794 178.865L34.4153 183.724L35.7339 185.153L35.1167 185.723L31.8772 182.213L32.4944 181.644Z" fill="#E60000"/>
<path d="M29.7429 179.736L33.5706 176.664C33.8077 176.474 33.9892 176.323 34.1153 176.211C34.2363 176.094 34.3634 175.92 34.4968 175.69C34.6188 175.458 34.6828 175.212 34.6886 174.951C34.7004 174.48 34.5435 174.042 34.218 173.636C33.8926 173.231 33.4986 172.983 33.0362 172.892C32.78 172.841 32.5283 172.854 32.281 172.929C32.0225 173.003 31.8252 173.09 31.6892 173.189C31.5482 173.281 31.3591 173.423 31.122 173.613L27.2943 176.685L26.7385 175.992L30.7534 172.77C31.3898 172.259 31.9941 171.99 32.5662 171.961C32.9835 171.945 33.3947 172.035 33.7998 172.233C34.1999 172.425 34.5577 172.717 34.8732 173.11C35.1886 173.504 35.3992 173.919 35.5048 174.358C35.6054 174.79 35.6023 175.208 35.4955 175.611C35.344 176.164 34.95 176.695 34.3136 177.206L30.2987 180.428L29.7429 179.736Z" fill="#E60000"/>
<path d="M31.8219 169.432L25.2143 173.949L24.2933 172.602C23.598 171.585 23.3003 170.596 23.4001 169.637C23.5128 168.455 24.1008 167.501 25.1641 166.774C26.1944 166.069 27.3038 165.878 28.4925 166.199C28.98 166.331 29.4073 166.538 29.7745 166.82C30.1417 167.102 30.5194 167.527 30.9077 168.095L31.8219 169.432ZM25.4066 172.742L30.6273 169.173L30.1871 168.529C29.6499 167.743 29.0206 167.248 28.2993 167.043C27.391 166.792 26.5175 166.953 25.6788 167.527C24.8863 168.068 24.4261 168.756 24.2982 169.59C24.1703 170.423 24.3931 171.259 24.9665 172.098L25.4066 172.742Z" fill="#E60000"/>
<path d="M20.7599 167.212L20.2971 166.454L27.1278 162.282L27.5906 163.04L20.7599 167.212Z" fill="#E60000"/>
<path d="M22.1133 155.355C23.1872 155.693 23.9967 156.378 24.5419 157.411C25.087 158.444 25.198 159.503 24.8747 160.587C24.5476 161.664 23.8641 162.477 22.8241 163.026C21.777 163.579 20.7182 163.681 19.6477 163.332C18.5701 162.987 17.7606 162.302 17.2191 161.276C16.6777 160.25 16.5686 159.195 16.8919 158.111C17.2081 157.03 17.8898 156.214 18.9369 155.661C19.977 155.112 21.0358 155.01 22.1133 155.355ZM17.7356 158.398C17.4646 159.256 17.5401 160.084 17.962 160.884C18.384 161.683 19.0254 162.213 19.8864 162.473C20.7474 162.734 21.5848 162.649 22.3984 162.22C23.212 161.79 23.7544 161.147 24.0254 160.289C24.2964 159.431 24.2209 158.603 23.799 157.803C23.377 157.004 22.7356 156.474 21.8746 156.214C21.0136 155.954 20.1762 156.038 19.3626 156.468C18.549 156.897 18.0066 157.541 17.7356 158.398Z" fill="#E60000"/>
<path d="M12.5427 148.55L13.2597 150.357L19.9187 147.715L20.2462 148.541L13.5872 151.183L14.3041 152.99L13.5233 153.299L11.7619 148.86L12.5427 148.55Z" fill="#E60000"/>
<path d="M10.7062 145.905L13.8031 144.913L12.551 141.004L9.45405 141.997L9.18312 141.151L16.8055 138.709L17.0764 139.554L13.3509 140.748L14.6031 144.656L18.3286 143.463L18.5995 144.308L10.9771 146.75L10.7062 145.905Z" fill="#E60000"/>
<path d="M7.53065 134.581L8.34696 134.383L9.11663 137.555L11.4256 136.995L10.6786 133.916L11.4949 133.718L12.2419 136.797L15.2623 136.064L14.4926 132.892L15.3089 132.694L16.288 136.729L8.50971 138.616L7.53065 134.581Z" fill="#E60000"/>
<path d="M13.712 123.235L11.6118 124.482L12.0958 127.856L14.4653 128.485L14.6051 129.459L5.77885 127.004L13.5722 122.261L13.712 123.235ZM11.2149 127.63L10.8297 124.946L7.84909 126.731L11.2149 127.63Z" fill="#E60000"/>
<path d="M5.51575 121.67L5.4439 120.785L12.5844 120.206L12.4058 118.005L13.243 117.937L13.4935 121.023L5.51575 121.67Z" fill="#E60000"/>
<path d="M5.13287 116.477L5.09952 115.038C5.081 114.238 5.23478 113.622 5.56087 113.191C5.91766 112.702 6.46395 112.449 7.19976 112.432C7.88757 112.416 8.41755 112.668 8.78968 113.188C8.90579 112.673 9.15692 112.287 9.54307 112.03C9.92104 111.765 10.33 111.628 10.7698 111.618C11.1297 111.609 11.4635 111.681 11.7711 111.834C12.0786 111.979 12.327 112.166 12.5163 112.393C12.8786 112.833 13.0693 113.469 13.0886 114.301L13.1347 116.292L5.13287 116.477ZM5.95208 115.57L8.62737 115.508L8.6118 114.836C8.60902 114.716 8.60234 114.6 8.59175 114.489C8.57316 114.377 8.53811 114.246 8.4866 114.095C8.42691 113.936 8.35178 113.802 8.26121 113.692C8.17046 113.574 8.03618 113.477 7.85837 113.401C7.68057 113.325 7.4757 113.29 7.24376 113.296C6.99582 113.301 6.78499 113.354 6.61126 113.454C6.42954 113.555 6.29607 113.666 6.21088 113.788C6.12568 113.91 6.06103 114.055 6.01693 114.224C5.97284 114.393 5.94781 114.522 5.94185 114.61C5.93589 114.698 5.93393 114.786 5.93597 114.874L5.95208 115.57ZM9.41915 115.49L12.2744 115.424L12.2508 114.404C12.2358 113.756 12.113 113.291 11.8823 113.008C11.6183 112.662 11.2463 112.495 10.7664 112.506C10.2306 112.518 9.84394 112.755 9.60657 113.217C9.45328 113.508 9.38377 113.962 9.39803 114.578L9.41915 115.49Z" fill="#E60000"/>
<path d="M5.08407 108.629L5.11149 107.741L13.1117 107.988L13.0843 108.876L5.08407 108.629Z" fill="#E60000"/>
<path d="M13.1907 105.363L13.1086 106.247L4.80428 105.477L11.893 99.8677L5.71553 99.2943L5.79759 98.4101L14.1258 99.1831L7.0371 104.792L13.1907 105.363Z" fill="#E60000"/>
<path d="M8.37499 88.5259L7.9889 90.4312L15.0102 91.854L14.8338 92.7243L7.81254 91.3015L7.42645 93.2068L6.60318 93.04L7.55172 88.3591L8.37499 88.5259Z" fill="#E60000"/>
<path d="M9.07701 82.3094L9.88941 82.523L9.05962 85.6797L11.3576 86.2838L12.1629 83.2199L12.9753 83.4334L12.17 86.4973L15.1758 87.2875L16.0056 84.1307L16.818 84.3442L15.7625 88.3598L8.02146 86.325L9.07701 82.3094Z" fill="#E60000"/>
<path d="M18.9182 77.8557L16.4814 78.022L15.3928 81.2515L17.224 82.8818L16.9097 83.8143L10.1379 77.6439L19.2325 76.9233L18.9182 77.8557ZM14.708 80.6534L15.5743 78.0835L12.1088 78.3336L14.708 80.6534Z" fill="#E60000"/>
<path d="M19.9206 75.0762L19.5497 75.9094L12.3734 71.257L19.7948 71.1979L14.8854 65.5843L23.1218 67.8845L22.7509 68.7177L17.3567 67.1441L21.6427 72.0336L15.1558 72.0884L19.9206 75.0762Z" fill="#E60000"/>
<path d="M21.8602 56.1118L21.8999 56.9596C21.6214 56.9426 21.3697 56.9743 21.145 57.0545C20.8641 57.1666 20.6315 57.3772 20.4472 57.6865C20.2425 58.0301 20.1764 58.3679 20.2488 58.6997C20.3143 59.0274 20.5051 59.2854 20.8213 59.4737C21.0549 59.6129 21.3054 59.6457 21.5727 59.5722C21.7921 59.5166 22.0797 59.362 22.4356 59.1085L23.1173 58.6206C23.6211 58.2596 24.0485 58.0346 24.3994 57.9457C24.9258 57.8123 25.4399 57.8951 25.9416 58.1939C26.5671 58.5665 26.9528 59.0757 27.0989 59.7214C27.245 60.3672 27.1318 61.0028 26.7592 61.6282C26.3907 62.2468 25.9083 62.6345 25.312 62.7914C24.8253 62.9206 24.2929 62.8921 23.7147 62.7059L23.9507 61.8408C24.323 61.9974 24.697 62.034 25.0727 61.9505C25.4784 61.8477 25.8021 61.5935 26.0437 61.188C26.3057 60.7481 26.3778 60.3301 26.2599 59.934C26.1352 59.5338 25.8838 59.2211 25.5058 58.9959C25.1759 58.7994 24.8403 58.7531 24.499 58.8571C24.2975 58.9139 23.9757 59.0947 23.5335 59.3993L22.8763 59.8459C22.4341 60.1505 22.0629 60.3438 21.7627 60.4257C21.272 60.5617 20.8032 60.4966 20.3565 60.2305C19.8273 59.9152 19.5076 59.4827 19.3975 58.9328C19.2846 58.372 19.396 57.8099 19.7317 57.2463C19.9856 56.8202 20.3077 56.5139 20.6981 56.3274C21.0516 56.1562 21.4389 56.0843 21.8602 56.1118Z" fill="#E60000"/>
<path d="M25.316 50.401L24.2189 52.0059L30.133 56.0489L29.6319 56.782L23.7177 52.739L22.6207 54.3438L21.9272 53.8698L24.6225 49.927L25.316 50.401Z" fill="#E60000"/>
<path d="M26.306 47.6068L30.1671 50.6368C30.4062 50.8245 30.5944 50.967 30.7315 51.0645C30.8735 51.1556 31.0717 51.2399 31.3261 51.3175C31.5791 51.3839 31.8334 51.3902 32.089 51.3366C32.5504 51.2411 32.9416 50.9888 33.2627 50.5797C33.5837 50.1706 33.7358 49.7306 33.7188 49.2598C33.7102 48.9987 33.641 48.7563 33.5115 48.5327C33.3806 48.2977 33.2515 48.1253 33.1243 48.0153C33.002 47.899 32.8213 47.747 32.5822 47.5593L28.7211 44.5293L29.2693 43.8307L33.3192 47.0089C33.9611 47.5126 34.3609 48.0399 34.5185 48.5907C34.6297 48.9932 34.6349 49.4142 34.534 49.8537C34.4382 50.2869 34.2346 50.7018 33.9235 51.0983C33.6123 51.4948 33.2553 51.7942 32.8524 51.9967C32.4544 52.1928 32.0467 52.2847 31.6293 52.2724C31.0568 52.2503 30.4496 51.9873 29.8077 51.4835L25.7578 48.3054L26.306 47.6068Z" fill="#E60000"/>
<path d="M37.1205 46.9173L31.2392 41.4883L32.3462 40.2891C33.1818 39.3839 34.0785 38.8724 35.0362 38.7549C36.2133 38.6002 37.275 38.9597 38.2214 39.8334C39.1385 40.6799 39.5735 41.7183 39.5264 42.9487C39.507 43.4534 39.4009 43.9162 39.2083 44.3372C39.0157 44.7581 38.686 45.2214 38.2193 45.727L37.1205 46.9173ZM32.4588 41.4056L37.1056 45.6951L37.6347 45.1219C38.2804 44.4224 38.6223 43.6982 38.6603 42.9494C38.7019 42.0079 38.3494 41.1926 37.6028 40.5035C36.8974 39.8524 36.1242 39.5577 35.2831 39.6197C34.4421 39.6816 33.677 40.0859 32.9878 40.8324L32.4588 41.4056Z" fill="#E60000"/>
<path d="M36.5959 35.839L37.2306 35.218L42.8283 40.939L42.1936 41.56L36.5959 35.839Z" fill="#E60000"/>
<path d="M48.3349 34.5679C48.2475 35.6902 47.762 36.6332 46.8783 37.397C45.9946 38.1607 44.9881 38.5071 43.8589 38.4362C42.7357 38.3601 41.7897 37.8772 41.0207 36.9874C40.2465 36.0916 39.9088 35.083 40.0075 33.9615C40.1009 32.8339 40.5865 31.8909 41.4641 31.1324C42.3418 30.3739 43.3452 30.03 44.4744 30.1009C45.5984 30.1658 46.5475 30.6461 47.3216 31.5419C48.0906 32.4317 48.4284 33.4403 48.3349 34.5679ZM44.3843 30.9877C43.4876 30.9167 42.6973 31.1768 42.0134 31.7679C41.3294 32.359 40.9576 33.1033 40.8979 34.0008C40.8382 34.8983 41.1092 35.695 41.7107 36.3911C42.3123 37.0872 43.0614 37.4707 43.9581 37.5416C44.8547 37.6126 45.645 37.3525 46.329 36.7614C47.013 36.1703 47.3848 35.426 47.4445 34.5286C47.5042 33.6311 47.2332 32.8343 46.6316 32.1382C46.0301 31.4422 45.2809 31.0587 44.3843 30.9877Z" fill="#E60000"/>
<path d="M55.8591 21.6722L54.2267 22.7278L58.1167 28.7437L57.371 29.2258L53.481 23.21L51.8486 24.2655L51.3924 23.5602L55.403 20.9668L55.8591 21.6722Z" fill="#E60000"/>
<path d="M57.8541 19.4806L59.4354 22.3223L63.0215 20.3267L61.4403 17.4851L62.2162 17.0533L66.1081 24.0474L65.3322 24.4792L63.43 21.0608L59.8438 23.0563L61.746 26.4747L60.97 26.9065L57.0781 19.9124L57.8541 19.4806Z" fill="#E60000"/>
<path d="M67.8008 14.3559L68.1595 15.1155L65.2079 16.5091L66.2224 18.6576L69.0871 17.305L69.4457 18.0646L66.581 19.4172L67.908 22.2277L70.8595 20.8341L71.2182 21.5937L67.4637 23.3664L64.0463 16.1286L67.8008 14.3559Z" fill="#E60000"/>
<path d="M80.8875 17.841L79.2524 16.0266L76.0397 17.1637L75.8874 19.6107L74.9598 19.9391L75.634 10.8025L81.8151 17.5127L80.8875 17.841ZM76.0875 16.2557L78.644 15.3508L76.308 12.7789L76.0875 16.2557Z" fill="#E60000"/>
<path d="M80.3296 9.63463L81.183 9.3894L83.1615 16.2748L85.2836 15.665L85.5156 16.4724L82.54 17.3274L80.3296 9.63463Z" fill="#E60000"/>
<path d="M85.7564 8.11363L87.162 7.80077C87.9429 7.62696 88.5767 7.65799 89.0636 7.89384C89.6121 8.14876 89.9663 8.63544 90.1262 9.35386C90.2757 10.0254 90.1318 10.5943 89.6947 11.0604C90.2222 11.0741 90.6496 11.2453 90.9769 11.5741C91.3102 11.8933 91.5247 12.2676 91.6202 12.6971C91.6985 13.0485 91.6925 13.39 91.6024 13.7215C91.5201 14.0512 91.3857 14.3311 91.1992 14.5611C90.8383 15.0021 90.2519 15.3129 89.4397 15.4937L87.4953 15.9264L85.7564 8.11363ZM86.8057 8.74064L87.387 11.3527L88.043 11.2067C88.1601 11.1806 88.2725 11.1515 88.3801 11.1194C88.4859 11.0794 88.6078 11.0195 88.7458 10.9397C88.8898 10.8502 89.0069 10.7504 89.0971 10.6402C89.1951 10.5282 89.264 10.3776 89.3039 10.1884C89.3437 9.99927 89.3385 9.79146 89.2881 9.565C89.2342 9.32292 89.1413 9.12641 89.0093 8.97547C88.8756 8.81673 88.7407 8.70744 88.6044 8.64761C88.4682 8.58779 88.3128 8.5527 88.1384 8.54234C87.964 8.53199 87.833 8.53247 87.7453 8.54378C87.6577 8.55509 87.5709 8.5703 87.485 8.58942L86.8057 8.74064ZM87.5591 12.1258L88.1796 14.9136L89.1753 14.692C89.8078 14.5512 90.2403 14.3402 90.4727 14.059C90.7607 13.7326 90.8525 13.3352 90.7482 12.8666C90.6318 12.3434 90.3241 12.0103 89.8251 11.8673C89.5092 11.7737 89.0506 11.7938 88.4493 11.9277L87.5591 12.1258Z" fill="#E60000"/>
<path d="M92.9535 6.61852L93.8288 6.46886L95.1778 14.3584L94.3025 14.508L92.9535 6.61852Z" fill="#E60000"/>
<path d="M97.5105 13.9409L96.6277 14.0366L95.7292 5.74509L102.637 11.5748L101.969 5.40689L102.852 5.31123L103.753 13.6266L96.8447 7.79685L97.5105 13.9409Z" fill="#E60000"/>
<path d="M113.091 5.84064H111.147V13.0046H110.259V5.84064H108.315V5.00064H113.091V5.84064Z" fill="#E60000"/>
<path d="M119.638 5.2875L119.59 6.12609L116.331 5.93729L116.194 8.30931L119.356 8.49256L119.308 9.33116L116.145 9.1479L115.965 12.2507L119.224 12.4395L119.175 13.2781L115.03 13.0379L115.493 5.04733L119.638 5.2875Z" fill="#E60000"/>
<path d="M126.363 14.0857L125.721 11.7293L122.34 11.2971L121.102 13.4131L120.126 13.2883L124.844 5.43523L127.339 14.2105L126.363 14.0857ZM122.792 10.508L125.482 10.8519L124.555 7.50333L122.792 10.508Z" fill="#E60000"/>
<path d="M129.074 14.472L128.184 14.2739L131.319 6.31708L132.85 13.5791L137.378 7.65326L136.758 16.1823L135.868 15.9842L136.339 10.3849L132.398 15.5561L131.057 9.2091L129.074 14.472Z" fill="#E60000"/>
<path d="M147.848 12.522L147.025 12.7301C146.986 12.4537 146.905 12.2135 146.782 12.0092C146.616 11.7563 146.363 11.5704 146.023 11.4516C145.645 11.3196 145.301 11.3221 144.991 11.4592C144.683 11.5888 144.468 11.8273 144.346 12.1747C144.257 12.4314 144.274 12.6834 144.4 12.9307C144.498 13.1345 144.707 13.3855 145.026 13.6837L145.64 14.2544C146.095 14.676 146.4 15.0499 146.558 15.376C146.793 15.8653 146.815 16.3855 146.622 16.9368C146.382 17.624 145.96 18.1036 145.356 18.3755C144.752 18.6475 144.107 18.6634 143.42 18.423C142.74 18.1854 142.264 17.79 141.991 17.237C141.768 16.7859 141.689 16.2585 141.756 15.6547L142.651 15.7134C142.572 16.1095 142.611 16.4832 142.768 16.8347C142.949 17.2118 143.263 17.4783 143.708 17.6341C144.192 17.8031 144.616 17.7904 144.98 17.5958C145.348 17.3937 145.604 17.085 145.749 16.6697C145.876 16.3072 145.854 15.9691 145.684 15.6555C145.588 15.4693 145.347 15.19 144.96 14.8175L144.392 14.2626C144.005 13.8901 143.742 13.5649 143.601 13.2871C143.37 12.8333 143.34 12.361 143.512 11.8702C143.715 11.2887 144.076 10.8892 144.592 10.6716C145.119 10.4491 145.692 10.4461 146.312 10.6627C146.78 10.8264 147.144 11.081 147.405 11.4263C147.643 11.7385 147.791 12.1037 147.848 12.522Z" fill="#E60000"/>
<path d="M154.278 14.8212L152.488 14.0639L149.697 20.662L148.879 20.3161L151.67 13.718L149.879 12.9607L150.207 12.187L154.605 14.0475L154.278 14.8212Z" fill="#E60000"/>
<path d="M157.3 15.2702L155.089 19.6524C154.953 19.9239 154.85 20.1364 154.781 20.29C154.72 20.4472 154.676 20.6581 154.65 20.9228C154.635 21.1839 154.679 21.4345 154.782 21.6746C154.966 22.1081 155.291 22.442 155.755 22.6761C156.219 22.9103 156.681 22.9727 157.139 22.8634C157.393 22.8034 157.617 22.6879 157.811 22.5169C158.016 22.3423 158.159 22.1818 158.242 22.0354C158.332 21.8926 158.445 21.6855 158.582 21.414L160.792 17.0318L161.585 17.4317L159.267 22.0282C158.9 22.7568 158.462 23.2526 157.953 23.5156C157.58 23.7039 157.168 23.7919 156.717 23.7796C156.274 23.7709 155.827 23.6531 155.377 23.4262C154.927 23.1992 154.563 22.9081 154.285 22.553C154.014 22.2014 153.844 21.8198 153.774 21.4081C153.683 20.8425 153.821 20.1954 154.189 19.4669L156.507 14.8703L157.3 15.2702Z" fill="#E60000"/>
<path d="M160.271 25.8256L164.443 18.9949L165.836 19.8456C166.887 20.4877 167.564 21.2669 167.867 22.1831C168.249 23.307 168.105 24.4186 167.434 25.5178C166.783 26.5829 165.85 27.2128 164.634 27.4077C164.135 27.4874 163.661 27.4741 163.21 27.3676C162.76 27.2612 162.241 27.0287 161.654 26.67L160.271 25.8256ZM164.763 20.1747L161.467 25.5716L162.133 25.9782C162.945 26.4744 163.722 26.6678 164.464 26.5584C165.395 26.4148 166.126 25.9095 166.655 25.0424C167.156 24.2232 167.293 23.4072 167.068 22.5945C166.842 21.7819 166.296 21.1108 165.429 20.5812L164.763 20.1747Z" fill="#E60000"/>
<path d="M171.048 23.1541L171.781 23.6552L167.264 30.2628L166.531 29.7617L171.048 23.1541Z" fill="#E60000"/>
<path d="M174.618 34.4446C173.5 34.5778 172.48 34.2856 171.559 33.5678C170.637 32.8501 170.101 31.9306 169.95 30.8093C169.806 29.6928 170.095 28.6707 170.818 27.743C171.545 26.8089 172.468 26.2808 173.588 26.1588C174.712 26.0305 175.731 26.3227 176.647 27.0355C177.562 27.7483 178.095 28.6654 178.245 29.7867C178.401 30.9017 178.115 31.9263 177.388 32.8604C176.665 33.7882 175.742 34.3162 174.618 34.4446ZM177.358 29.8713C177.253 28.9781 176.844 28.2537 176.13 27.6982C175.417 27.1427 174.615 26.9232 173.723 27.0398C172.831 27.1564 172.102 27.5776 171.537 28.3034C170.972 29.0292 170.742 29.8387 170.847 30.732C170.952 31.6253 171.362 32.3496 172.075 32.9051C172.788 33.4606 173.591 33.6801 174.482 33.5635C175.374 33.447 176.103 33.0258 176.668 32.3C177.234 31.5742 177.464 30.7646 177.358 29.8713Z" fill="#E60000"/>
<path d="M186.559 37.0582L185.165 35.7037L180.173 40.8425L179.536 40.2238L184.528 35.085L183.133 33.7305L183.719 33.128L187.144 36.4557L186.559 37.0582Z" fill="#E60000"/>
<path d="M189.121 38.4907L186.707 40.6703L189.458 43.7161L191.871 41.5365L192.466 42.1955L186.526 47.5601L185.931 46.901L188.834 44.2791L186.084 41.2333L183.18 43.8553L182.585 43.1962L188.525 37.8317L189.121 38.4907Z" fill="#E60000"/>
<path d="M196.707 47.4938L196.046 48.0124L194.031 45.4446L192.162 46.9115L194.117 49.4037L193.457 49.9222L191.501 47.43L189.056 49.3488L191.071 51.9165L190.41 52.4351L187.847 49.1688L194.143 44.2275L196.707 47.4938Z" fill="#E60000"/>
<path d="M195.739 60.2935L197.132 58.2876L195.292 55.419L192.875 55.829L192.344 55.0008L201.393 53.5729L196.27 61.1218L195.739 60.2935ZM196.187 55.2584L197.651 57.5412L199.623 54.68L196.187 55.2584Z" fill="#E60000"/>
<path d="M203.892 58.3777L204.324 59.1536L198.064 62.6371L199.137 64.5665L198.403 64.9749L196.898 62.2696L203.892 58.3777Z" fill="#E60000"/>
<path d="M206.459 63.0618L207.084 64.3594C207.431 65.0802 207.545 65.7046 207.426 66.2323C207.303 66.8244 206.909 67.2801 206.246 67.5992C205.626 67.8976 205.039 67.887 204.486 67.5673C204.593 68.0842 204.523 68.5393 204.278 68.9328C204.043 69.33 203.727 69.624 203.33 69.8148C203.006 69.9709 202.672 70.0428 202.329 70.0305C201.989 70.0254 201.686 69.9582 201.42 69.8289C200.908 69.5779 200.472 69.0775 200.111 68.3278L199.247 66.5329L206.459 63.0618ZM206.088 64.2263L203.676 65.3868L203.968 65.9923C204.02 66.1004 204.074 66.2032 204.13 66.3007C204.193 66.3946 204.279 66.4997 204.388 66.6158C204.508 66.7357 204.631 66.8271 204.759 66.8898C204.891 66.9598 205.053 66.9926 205.246 66.9884C205.44 66.9842 205.641 66.9317 205.85 66.8311C206.073 66.7236 206.243 66.5884 206.36 66.4256C206.485 66.2593 206.56 66.103 206.588 65.9567C206.615 65.8104 206.614 65.6511 206.584 65.4789C206.554 65.3067 206.524 65.1793 206.493 65.0965C206.462 65.0137 206.428 64.9327 206.389 64.8534L206.088 64.2263ZM202.963 65.7302L200.389 66.9688L200.832 67.8879C201.113 68.4718 201.416 68.8449 201.743 69.0073C202.127 69.2134 202.534 69.2124 202.967 69.0043C203.45 68.7718 203.704 68.3964 203.73 67.8779C203.749 67.549 203.625 67.1071 203.358 66.552L202.963 65.7302Z" fill="#E60000"/>
<path d="M209.461 69.5217L209.807 70.3395L202.436 73.4575L202.09 72.6397L209.461 69.5217Z" fill="#E60000"/>
<path d="M203.511 75.9932L203.218 75.155L211.09 72.4019L206.977 80.451L212.833 78.403L213.126 79.2412L205.231 82.0023L209.345 73.9531L203.511 75.9932Z" fill="#E60000"/>
<path d="M214.95 89.5578L214.513 87.6636L207.532 89.2733L207.333 88.408L214.314 86.7983L213.877 84.904L214.695 84.7152L215.769 89.3691L214.95 89.5578Z" fill="#E60000"/>
<path d="M216.891 95.5588L216.063 95.7004L215.512 92.483L213.17 92.8835L213.704 96.0062L212.876 96.1477L212.342 93.0251L209.279 93.5489L209.829 96.7662L209.001 96.9078L208.301 92.8151L216.191 91.4662L216.891 95.5588Z" fill="#E60000"/>
<path d="M209.79 103.892L211.941 102.735L211.6 99.3438L209.259 98.6144L209.16 97.6353L217.875 100.461L209.888 104.871L209.79 103.892ZM212.47 99.606L212.742 102.304L215.795 100.646L212.47 99.606Z" fill="#E60000"/>
<path d="M210 106.505L209.989 105.593L218.452 106.827L211.732 109.977L218.536 113.031L210.091 114.376L210.08 113.464L215.639 112.644L209.704 109.989L215.576 107.232L210 106.505Z" fill="#E60000"/>
</svg>
